<?xml version="1.0" standalone="no"?>
<!DOCTYPE svg PUBLIC "-//W3C//DTD SVG 20010904//EN"
 "http://www.w3.org/TR/2001/REC-SVG-20010904/DTD/svg10.dtd">
<svg version="1.0" xmlns="http://www.w3.org/2000/svg"
 width="500.000000pt" height="500.000000pt" viewBox="0 0 500.000000 500.000000"
 preserveAspectRatio="xMidYMid meet">
<metadata>
Created by potrace 1.11, written by Peter Selinger 2001-2013
</metadata>
<g transform="translate(0.000000,500.000000) scale(0.100000,-0.100000)"
fill="#000000" stroke="none">
<path d="M3155 4434 c-44 -23 -64 -43 -106 -107 -93 -143 -194 -483 -250 -837
-16 -105 -22 -201 -26 -430 l-6 -295 -40 -60 c-102 -151 -468 -598 -474 -578
-2 4 -7 157 -11 339 -8 302 -10 334 -28 365 -20 34 -81 66 -106 56 -8 -2 -64
-88 -126 -190 -189 -311 -341 -496 -511 -620 -99 -73 -114 -89 -109 -114 4
-25 58 -29 100 -7 91 46 268 218 387 377 32 43 93 138 135 211 42 74 91 153
108 177 l33 44 7 -45 c3 -25 7 -202 7 -393 l1 -348 -136 -172 c-162 -206 -221
-293 -279 -412 -84 -173 -132 -368 -122 -496 11 -128 78 -272 147 -312 17 -10
47 -20 68 -22 125 -13 224 90 286 295 67 223 136 737 136 1011 l0 87 198 235
c110 129 228 271 263 316 l64 81 5 -259 c5 -280 8 -291 60 -291 49 0 54 19 61
199 5 135 11 180 30 240 l24 74 38 -57 c106 -159 265 -272 421 -299 70 -12
129 2 150 35 17 28 -4 39 -81 43 -208 12 -430 197 -393 327 5 16 20 44 33 62
43 56 69 118 74 177 5 54 4 60 -25 88 -32 33 -62 38 -120 22 -17 -5 -32 -8
-32 -6 0 2 27 54 59 117 145 275 271 639 312 893 18 114 18 321 0 365 -44 106
-144 157 -226 114z m117 -94 c20 -40 22 -103 8 -235 -26 -236 -84 -445 -207
-748 -60 -150 -180 -403 -187 -396 -7 8 15 412 29 539 30 267 103 548 185 715
79 161 135 201 172 125z m-174 -1488 c6 -58 -76 -202 -115 -202 -12 0 -14 8
-8 38 10 54 43 150 62 179 23 35 57 28 61 -15z m-972 -1169 c-15 -310 -93
-689 -185 -903 -62 -144 -85 -158 -145 -88 -71 83 -106 231 -88 372 22 168 94
334 220 506 60 81 194 248 201 249 2 1 1 -61 -3 -136z"/>
<path d="M2048 3309 c-11 -6 -18 -22 -18 -40 l0 -30 -30 22 c-24 18 -32 20
-45 9 -38 -32 11 -116 80 -137 45 -14 60 -9 74 25 21 55 17 112 -9 140 -23 25
-28 26 -52 11z"/>
</g>
</svg>
